<svg width="29" height="31" viewBox="0 0 29 31" fill="none" xmlns="http://www.w3.org/2000/svg">
<path fill-rule="evenodd" clip-rule="evenodd" d="M7.80191 1.94551C8.41595 2.5117 9.11314 3.17116 9.35105 3.41095L9.78375 3.8469L10.1449 3.66922C10.6645 3.41358 11.8147 3.18894 12.4332 3.22222C12.9626 3.25077 12.9665 3.24919 13.3055 2.87944C13.5986 2.55978 13.6944 2.50802 13.9923 2.50802C14.2943 2.50802 14.3826 2.55759 14.6839 2.89678L15.0293 3.28554L15.364 2.89678C15.6287 2.58938 15.7553 2.50802 15.9687 2.50802C16.3142 2.50802 16.6688 2.70078 16.8467 2.98523C16.9776 3.19454 17.0297 3.20873 17.6738 3.20996C18.3842 3.21136 19.4451 3.43985 19.9093 3.69137C20.2202 3.85987 20.0707 3.96672 21.9033 2.26718C22.6435 1.58074 23.3016 1.01919 23.3659 1.01919C23.4302 1.01919 23.5002 1.0685 23.5215 1.12866C23.5428 1.18892 23.7972 1.92781 24.0867 2.77075C24.3762 3.61369 24.6428 4.33866 24.6791 4.38184C24.7154 4.42502 24.8105 4.31668 24.8905 4.141C25.1901 3.48233 25.2791 3.73385 25.3899 5.55328C25.4267 6.15749 25.4098 6.62542 25.3382 6.97853C25.2796 7.26771 25.2543 7.52791 25.2819 7.55681C25.3094 7.58571 25.5216 7.46652 25.7535 7.29189C25.9854 7.11734 26.1938 6.9745 26.2167 6.9745C26.3762 6.9745 26.0042 8.1992 25.6556 8.8218C25.5367 9.03409 25.2832 9.39359 25.0922 9.62077L24.745 10.0337L25.3949 10.7445C27.2896 12.8168 28.0854 14.3306 28.2359 16.1483C28.2915 16.8214 28.2462 16.8984 27.9593 16.6183C27.621 16.288 26.5356 15.5178 25.924 15.1741C25.2399 14.7895 25.2434 14.8216 25.9757 15.6447C26.2115 15.9097 26.7333 16.5205 27.1352 17.0022C27.5372 17.4839 28.2094 18.2839 28.629 18.78C29.5047 19.8153 29.5894 19.9906 29.172 19.9031C27.1182 19.4726 23.8181 19.7939 21.8293 20.618C21.0185 20.9541 20.8004 21.1283 19.6148 22.3875C18.4623 23.6115 17.8662 24.0973 17.0357 24.4895C15.3787 25.2719 13.3924 25.0029 11.8466 23.7869C11.615 23.6046 10.9553 22.9556 10.3808 22.3446C9.21726 21.1072 9.00718 20.9424 8.16634 20.6088C6.40227 19.9089 3.92146 19.5668 1.98584 19.7564C1.43615 19.8103 0.900324 19.877 0.795031 19.9047C0.675449 19.9362 0.603666 19.9158 0.603666 19.8502C0.603666 19.7926 1.06094 19.2071 1.61974 18.549C2.17862 17.8909 2.88333 17.0569 3.18584 16.6957C3.48835 16.3344 3.97737 15.7728 4.27261 15.4477C4.56784 15.1226 4.77258 14.8565 4.72771 14.8565C4.59851 14.8565 3.55603 15.5351 2.73943 16.1508C2.32837 16.4606 1.94297 16.7339 1.88289 16.758C1.57018 16.8838 1.98668 14.841 2.48581 13.8003C2.99331 12.7425 3.55704 11.9484 4.70782 10.6706C5.02436 10.319 5.28333 10.0013 5.28333 9.96443C5.28333 9.92756 5.16676 9.78156 5.02428 9.64013C4.6489 9.26739 4.32434 8.74788 4.09136 8.14701C3.86865 7.57266 3.73629 6.9745 3.83197 6.9745C3.86514 6.9745 4.09244 7.11901 4.33712 7.29556C4.5818 7.47221 4.80183 7.59587 4.82606 7.57047C4.8503 7.54507 4.82355 7.41038 4.76656 7.2713C4.54645 6.73384 4.69018 3.82169 4.93678 3.82169C4.97247 3.82169 5.06706 3.96541 5.14695 4.141C5.22692 4.31668 5.32177 4.42502 5.35779 4.38184C5.39381 4.33866 5.54573 3.94868 5.69548 3.51517C6.2369 1.94743 6.5623 1.06158 6.62322 0.989502C6.6574 0.949129 7.18779 1.37931 7.80191 1.94551ZM16.3936 3.58085L16.6548 3.95306L17.6334 3.9535C18.2176 3.95376 18.7467 4.00052 18.9463 4.06945C19.5405 4.27473 19.7402 4.36704 19.7402 4.43658C19.7402 4.47406 19.6085 4.70964 19.4477 4.96021C19.2868 5.21077 19.1552 5.49697 19.1552 5.59629C19.1552 5.87303 19.6216 6.57304 20.131 7.06103C20.383 7.30239 20.6212 7.49997 20.6602 7.49997C20.6992 7.49997 20.7723 7.29302 20.8225 7.04019C20.9915 6.19042 21.6621 5.05698 22.4932 4.21641C22.9003 3.80461 22.9288 3.82721 23.1222 4.71472C23.2863 5.46816 23.2857 6.36452 23.1208 6.78025C23.0498 6.95935 22.7982 7.31177 22.5617 7.56347C22.3251 7.81517 22.1482 8.03605 22.1685 8.05435C22.4096 8.27128 23.3044 8.90114 23.3711 8.90079C23.4801 8.90018 24.0564 8.07449 24.3352 7.51968C24.582 7.02819 24.6414 7.16752 24.5016 7.91071C24.3647 8.6392 24.3645 8.68535 24.4982 8.65487C24.5642 8.6399 24.7279 8.6046 24.8617 8.57649L25.1052 8.52552L24.9787 8.78177C24.851 9.04057 24.2062 9.71045 23.8518 9.95243C23.6611 10.0827 23.6669 10.0912 24.7315 11.222C25.3209 11.8482 25.9793 12.6392 26.1944 12.9798C26.6004 13.6227 27.1161 14.6874 27.0532 14.7532C27.0334 14.774 26.7054 14.631 26.3244 14.4355C24.9345 13.7224 23.0581 12.8932 21.0655 12.1117C20.448 11.8694 20.5387 11.8505 19.589 12.4199C19.345 12.5662 19.1261 12.6658 19.1026 12.6412C19.0792 12.6166 19.119 12.238 19.1911 11.7997C19.2633 11.3616 19.3223 10.9833 19.3223 10.9593C19.3223 10.7831 19.089 11.051 18.4824 11.9236C18.097 12.478 17.7445 12.9187 17.6991 12.9028C17.6537 12.887 17.4312 12.2742 17.2047 11.5411C16.9609 10.7521 16.7548 10.2214 16.6996 10.2405C16.6484 10.2582 16.5827 10.506 16.5537 10.7912C16.5247 11.0763 16.4609 11.6249 16.4119 12.0103C16.3629 12.3956 16.2252 13.4794 16.1061 14.4187C15.9869 15.3579 15.8567 16.3034 15.8168 16.5197C15.6998 17.1529 15.86 17.2091 16.1203 16.6263C16.3481 16.1162 17.6112 14.8532 18.1942 14.5525C19.4095 13.9258 20.101 13.7778 21.6213 13.819C22.7629 13.8499 22.8271 13.8615 23.1361 14.0914C23.3136 14.2234 24.3926 15.3068 25.5338 16.4988L27.6089 18.6662L26.7038 18.7254C24.3 18.8827 22.0699 19.4429 20.4941 20.2854L20.1765 20.4552L19.757 19.8672C19.1 18.9463 17.6313 17.4938 17.3497 17.4863C17.2056 17.4825 16.6112 18.8315 16.3088 19.8485C16.1584 20.3543 16.0224 20.785 16.0065 20.8055C15.9907 20.8262 15.7589 20.7335 15.4914 20.5995L15.005 20.3558L14.5318 20.6358C14.1815 20.8429 14.0496 20.8852 14.0246 20.7981C13.5911 19.2897 12.8764 17.4839 12.7131 17.4839C12.3968 17.4839 11.0758 18.7674 10.3456 19.7842C10.0781 20.1568 9.844 20.4615 9.82545 20.4615C9.8069 20.4615 9.53882 20.3283 9.22971 20.1654C7.69963 19.3594 5.34158 18.8146 2.82977 18.6869L2.42347 18.6662L4.59475 16.4191C5.7889 15.1832 6.89305 14.1016 7.04832 14.0154C7.26542 13.895 7.58539 13.8504 8.43283 13.8222C9.77063 13.7778 10.53 13.9258 11.509 14.4214C12.5729 14.9601 13.216 15.5742 13.9859 16.7863C14.0613 16.9051 14.1457 16.9794 14.1734 16.9516C14.2231 16.9018 14.2057 16.734 13.9343 14.6376C13.8594 14.0596 13.7628 13.3108 13.7195 12.9736C13.6763 12.6364 13.602 11.9468 13.5545 11.441C13.4633 10.4716 13.4143 10.2145 13.3209 10.2156C13.2895 10.216 13.0801 10.7973 12.8554 11.5074C12.6309 12.2175 12.4193 12.8538 12.3854 12.9213C12.3418 13.0082 12.1674 12.8171 11.7909 12.27C11.1396 11.3234 10.8284 10.9428 10.7623 11.012C10.7347 11.0409 10.7692 11.3489 10.8389 11.6964C10.9087 12.0439 10.9658 12.427 10.9658 12.5479V12.7675L10.4853 12.4855C10.221 12.3305 9.89197 12.1336 9.75408 12.0479C9.51066 11.8968 9.48759 11.8981 8.96021 12.0925C7.92534 12.4739 5.23637 13.6759 4.1145 14.2587C3.49453 14.5807 2.97784 14.8342 2.96623 14.822C2.91693 14.7703 3.63517 13.3224 3.95498 12.8288C4.14659 12.5331 4.76832 11.7945 5.33657 11.1874C6.35815 10.0958 6.36759 10.082 6.18166 9.95243C5.84122 9.71501 5.24431 9.096 5.09055 8.82101C4.922 8.5193 4.99687 8.47437 5.40024 8.63517C5.6857 8.74884 5.71411 8.66258 5.5657 8.13203C5.49626 7.88383 5.45138 7.55243 5.46584 7.39567C5.49191 7.11437 5.49668 7.11857 5.82425 7.70736C6.00684 8.03561 6.27275 8.44547 6.41523 8.61809L6.67411 8.93206L7.27361 8.50065C7.60328 8.2634 7.87319 8.04375 7.87344 8.01265C7.87369 7.98148 7.74534 7.83776 7.58823 7.69317C7.43113 7.54866 7.19614 7.26158 7.06595 7.05534C6.84433 6.70424 6.82963 6.62428 6.83414 5.79842C6.83874 4.94068 7.03979 3.90927 7.20225 3.90927C7.28105 3.90927 8.10241 4.82358 8.40292 5.24588C8.75072 5.73439 9.01403 6.30129 9.125 6.80022C9.27985 7.49621 9.28119 7.49997 9.3747 7.49997C9.53222 7.49997 10.522 6.40961 10.7031 6.03653C10.9388 5.55126 10.9328 5.49452 10.5897 4.96021C10.4289 4.70964 10.2973 4.47406 10.2973 4.43658C10.2973 4.34479 10.6446 4.20422 11.3 4.03073C11.7027 3.92415 12.0316 3.90094 12.5712 3.9407L13.2992 3.99448L13.6126 3.60151C13.7849 3.38546 13.9714 3.20864 14.027 3.20864C14.0825 3.20864 14.3074 3.46481 14.5268 3.7779C14.7461 4.09099 14.9653 4.34637 15.0139 4.34541C15.0625 4.34436 15.2824 4.08819 15.5027 3.77615C15.723 3.46402 15.9547 3.20864 16.0178 3.20864C16.0808 3.20864 16.25 3.37609 16.3936 3.58085ZM19.516 15.0835C19.8072 15.3886 19.8043 15.5572 19.5081 15.5572C19.1844 15.5572 18.889 15.3217 18.9206 15.0889C18.9586 14.8101 19.2526 14.8074 19.516 15.0835ZM11.1071 14.9998C11.1835 15.2086 11.0283 15.413 10.7237 15.5045C10.3078 15.6296 10.2052 15.4486 10.5057 15.1199C10.7711 14.8295 11.026 14.7786 11.1071 14.9998ZM20.8822 15.5285C20.8253 15.8951 20.4805 16.3846 20.0752 16.6738C19.4576 17.1144 18.4726 16.8168 18.0712 16.0683C17.8538 15.6629 17.9482 15.6338 18.283 16.0028C18.418 16.1516 18.63 16.329 18.7541 16.397C19.0777 16.5741 19.6497 16.551 19.9675 16.3479C20.2551 16.1641 20.7429 15.5206 20.7429 15.3251C20.7429 15.26 20.7855 15.2069 20.8375 15.2069C20.8996 15.2069 20.9149 15.3169 20.8822 15.5285ZM9.49837 15.6875C10.0861 16.7385 11.12 16.8039 11.9285 15.8413C12.0634 15.6807 12.1311 15.6446 12.1325 15.7323C12.1361 15.9566 11.8294 16.3629 11.4607 16.6225C11.0553 16.9078 10.4521 16.9592 10.0523 16.7426C9.78885 16.5998 9.39584 16.1449 9.2974 15.8686C9.05071 15.1764 9.15835 15.0793 9.49837 15.6875ZM26.0911 20.0789C26.0911 20.1576 25.9314 20.5418 25.736 20.9328C25.4656 21.4743 25.1865 21.8497 24.5661 22.5069C24.1179 22.9816 23.7513 23.3855 23.7513 23.4046C23.7513 23.4236 23.8077 23.4392 23.8767 23.4392C24.1467 23.4392 23.9657 23.7087 23.0619 24.6521C21.8449 25.9227 21.0186 26.5651 19.7819 27.2023C19.2304 27.4865 18.6663 27.8435 18.5285 27.9955C17.8751 28.7163 16.2296 29.871 15.3597 30.2191L14.9755 30.3729L14.2157 29.9683C13.1459 29.3987 12.6522 29.0515 11.8567 28.3099C11.3777 27.8631 10.9405 27.5517 10.4443 27.3035C9.2679 26.7151 8.25693 25.9443 7.08977 24.7459C5.99924 23.6263 5.85709 23.3752 6.33668 23.416C6.55637 23.4346 6.56406 23.4266 6.41982 23.3284C6.04762 23.0749 5.28726 22.3771 4.99904 22.0247C4.58289 21.5158 4.02985 20.453 4.02985 20.1624C4.02985 19.9329 4.04046 19.9375 4.59392 20.405C5.25768 20.9656 6.25327 21.5078 7.10088 21.7702C7.43414 21.8734 7.70673 21.9956 7.70673 22.0416C7.70673 22.0878 7.45286 22.1302 7.14266 22.1359C6.83247 22.1416 6.46578 22.173 6.3279 22.2057C6.08598 22.2631 6.09952 22.2766 6.71414 22.5901C7.37732 22.9285 8.46567 23.2631 8.91091 23.2654C9.05289 23.2661 9.22428 23.3033 9.29163 23.3479C9.39108 23.4138 9.37528 23.4445 9.20807 23.5107C9.09475 23.5557 8.83587 23.6216 8.6328 23.6573C8.02378 23.7645 8.42222 23.8819 9.59155 23.9398C10.2389 23.9718 10.6262 24.0253 10.6087 24.0802C10.5723 24.1948 9.81952 24.4511 9.12734 24.5845C8.02286 24.7973 8.06464 24.7378 8.67007 25.2345C9.274 25.7301 10.4476 26.4571 11.1329 26.7604C11.4413 26.8969 11.8148 27.1868 12.2681 27.6417C13.1795 28.5563 14.5883 29.4821 15.0687 29.4821C15.4839 29.4821 17.0835 28.4066 17.8692 27.5992C18.2768 27.1804 18.6133 26.9417 19.2698 26.6057C20.1507 26.1547 21.5012 25.2595 21.7698 24.9485C21.9161 24.7791 21.9063 24.7738 21.1845 24.634C20.3563 24.4736 19.6425 24.2268 19.5975 24.0854C19.5776 24.023 19.9032 23.9727 20.5521 23.9379C21.0937 23.9088 21.6496 23.8493 21.7875 23.8057C22.0234 23.7311 22.0101 23.7225 21.561 23.6607C21.2987 23.6246 21.0167 23.5435 20.9345 23.4804C20.7973 23.3753 20.8057 23.3617 21.0355 23.3149C22.0498 23.1086 22.8807 22.8519 23.4127 22.5803C23.9661 22.2979 24.0125 22.256 23.8305 22.2029C23.7181 22.1699 23.3744 22.1391 23.0668 22.1343C22.7593 22.1295 22.4869 22.0902 22.4615 22.0471C22.4361 22.0041 22.7253 21.8623 23.1042 21.732C24.2352 21.3434 25.2158 20.7619 25.7505 20.163C25.9838 19.9018 26.0911 19.8753 26.0911 20.0789ZM16.2959 21.5066C16.5668 21.6391 16.6934 21.773 16.8164 22.0569C16.9057 22.2632 16.9797 22.5159 16.9807 22.6184C16.9856 23.115 16.5035 23.7749 15.8961 24.1031C15.4719 24.3323 14.5403 24.319 14.0995 24.0774C13.4993 23.7483 13.1385 23.1445 13.1385 22.4688C13.1385 22.1989 13.2017 22.0633 13.4598 21.7789C13.6365 21.5842 13.846 21.4249 13.9251 21.4249C14.0544 21.4249 14.0513 21.4511 13.8945 21.6819C13.6983 21.9707 13.4727 22.5885 13.4727 22.8372C13.4727 23.0868 13.613 23.0332 13.7081 22.7472C14.0281 21.785 15.4608 21.0982 16.2959 21.5066Z" fill="#50C0FF"/>
</svg>
