<svg width="15" height="16" viewBox="0 0 15 16" fill="none" xmlns="http://www.w3.org/2000/svg">
<path d="M8.22419 1.02369L9.916 4.51767C10.0336 4.76068 10.2611 4.92906 10.5243 4.96797L14.3074 5.5283C14.9702 5.62652 15.2345 6.45633 14.7552 6.93246L12.0177 9.65213C11.8275 9.84124 11.7405 10.1139 11.7855 10.3808L12.4317 14.2212C12.5449 14.8937 11.8522 15.4065 11.2596 15.0892L7.87594 13.2762C7.64065 13.1503 7.35935 13.1503 7.12406 13.2762L3.74044 15.0892C3.14782 15.4069 2.45508 14.8937 2.56834 14.2212L3.21447 10.3808C3.25952 10.1139 3.17254 9.84124 2.9823 9.65213L0.244804 6.93246C-0.234547 6.45601 0.029847 5.6262 0.692553 5.5283L4.47574 4.96797C4.73888 4.92906 4.96635 4.76068 5.084 4.51767L6.77581 1.02369C7.07181 0.4117 7.92788 0.4117 8.22419 1.02369Z" fill="#F59E0B"/>
</svg>
