<svg width="17" height="16" viewBox="0 0 17 16" fill="none" xmlns="http://www.w3.org/2000/svg">
<path d="M16.679 0.969016C16.389 0.729324 15.9335 0.695028 15.4626 0.87932C14.9673 1.07303 1.44172 6.72764 0.891141 6.95867C0.791 6.99259 -0.083589 7.31067 0.00649905 8.01919C0.086921 8.65799 0.78984 8.92256 0.875675 8.95308L4.3141 10.1007C4.54222 10.8408 5.38317 13.5717 5.56915 14.1551C5.68514 14.5188 5.87421 14.9966 6.20556 15.095C6.49632 15.2043 6.78553 15.1044 6.97267 14.9612L9.07485 13.0606L12.4684 15.6403L12.5492 15.6874C12.7797 15.7869 13.0004 15.8367 13.2112 15.8367C13.3739 15.8367 13.5301 15.8069 13.6794 15.7474C14.1878 15.5438 14.3912 15.0716 14.4125 15.0181L16.9473 2.17539C17.102 1.48948 16.887 1.14049 16.679 0.969016ZM7.34655 10.5597L6.18662 13.5747L5.02669 9.80595L13.9195 3.3991L7.34655 10.5597Z" fill="white"/>
</svg>
