<svg width="19" height="42" viewBox="0 0 19 42" fill="none" xmlns="http://www.w3.org/2000/svg">
<mask id="path-1-outside-1_148_46" maskUnits="userSpaceOnUse" x="-1" y="-1" width="21" height="44" fill="black">
<rect fill="white" x="-1" y="-1" width="21" height="44"/>
<path d="M8.82 42V3.6L13.02 7.8H0.42V-2.86102e-06H18.54V42H8.82Z"/>
</mask>
<path d="M8.82 42H7.82V43H8.82V42ZM8.82 3.6L9.52711 2.89289L7.82 1.18578V3.6H8.82ZM13.02 7.8V8.8H15.4342L13.7271 7.09289L13.02 7.8ZM0.42 7.8H-0.58V8.8H0.42V7.8ZM0.42 -2.86102e-06V-1H-0.58V-2.86102e-06H0.42ZM18.54 -2.86102e-06H19.54V-1H18.54V-2.86102e-06ZM18.54 42V43H19.54V42H18.54ZM9.82 42V3.6H7.82V42H9.82ZM8.11289 4.3071L12.3129 8.5071L13.7271 7.09289L9.52711 2.89289L8.11289 4.3071ZM13.02 6.8H0.42V8.8H13.02V6.8ZM1.42 7.8V-2.86102e-06H-0.58V7.8H1.42ZM0.42 0.999996H18.54V-1H0.42V0.999996ZM17.54 -2.86102e-06V42H19.54V-2.86102e-06H17.54ZM18.54 41H8.82V43H18.54V41Z" fill="#00FFA3" mask="url(#path-1-outside-1_148_46)"/>
</svg>
