<svg width="34" height="43" viewBox="0 0 34 43" fill="none" xmlns="http://www.w3.org/2000/svg">
<mask id="path-1-outside-1_148_57" maskUnits="userSpaceOnUse" x="-2" y="-1" width="37" height="45" fill="black">
<rect fill="white" x="-2" y="-1" width="37" height="45"/>
<path d="M1.98 43V36.7L18.18 21.4C19.46 20.24 20.4 19.2 21 18.28C21.6 17.36 22 16.52 22.2 15.76C22.44 15 22.56 14.3 22.56 13.66C22.56 11.98 21.98 10.7 20.82 9.82C19.7 8.9 18.04 8.44 15.84 8.44C14.08 8.44 12.44 8.78 10.92 9.46C9.44 10.14 8.18 11.2 7.14 12.64L0.06 8.08C1.66 5.68 3.9 3.78 6.78 2.38C9.66 0.979999 12.98 0.279999 16.74 0.279999C19.86 0.279999 22.58 0.799999 24.9 1.84C27.26 2.84 29.08 4.26 30.36 6.1C31.68 7.94 32.34 10.14 32.34 12.7C32.34 14.06 32.16 15.42 31.8 16.78C31.48 18.1 30.8 19.5 29.76 20.98C28.76 22.46 27.28 24.12 25.32 25.96L11.88 38.62L10.02 35.08H33.72V43H1.98Z"/>
</mask>
<path d="M1.98 43H0.98V44H1.98V43ZM1.98 36.7L1.29338 35.973L0.98 36.269V36.7H1.98ZM18.18 21.4L17.5085 20.659L17.5009 20.6659L17.4934 20.673L18.18 21.4ZM21 18.28L21.8376 18.8263L21 18.28ZM22.2 15.76L21.2464 15.4589L21.2391 15.482L21.2329 15.5055L22.2 15.76ZM20.82 9.82L20.1853 10.5927L20.2002 10.605L20.2156 10.6167L20.82 9.82ZM10.92 9.46L10.5116 8.54713L10.5025 8.55132L10.92 9.46ZM7.14 12.64L6.59852 13.4807L7.39559 13.9941L7.95068 13.2255L7.14 12.64ZM0.06 8.08L-0.77205 7.5253L-1.33559 8.37061L-0.481477 8.92071L0.06 8.08ZM6.78 2.38L6.34281 1.48063H6.34281L6.78 2.38ZM24.9 1.84L24.4909 2.75251L24.5004 2.75673L24.5099 2.76075L24.9 1.84ZM30.36 6.1L29.5391 6.67106L29.5432 6.67702L29.5475 6.68291L30.36 6.1ZM31.8 16.78L30.8333 16.5241L30.8306 16.5342L30.8282 16.5444L31.8 16.78ZM29.76 20.98L28.9418 20.4051L28.9365 20.4126L28.9314 20.4201L29.76 20.98ZM25.32 25.96L24.6356 25.2309L24.6343 25.2321L25.32 25.96ZM11.88 38.62L10.9948 39.0851L11.6072 40.2508L12.5657 39.3479L11.88 38.62ZM10.02 35.08V34.08H8.36494L9.13476 35.5451L10.02 35.08ZM33.72 35.08H34.72V34.08H33.72V35.08ZM33.72 43V44H34.72V43H33.72ZM2.98 43V36.7H0.98V43H2.98ZM2.66662 37.427L18.8666 22.127L17.4934 20.673L1.29338 35.973L2.66662 37.427ZM18.8515 22.141C20.1632 20.9523 21.1721 19.8468 21.8376 18.8263L20.1624 17.7337C19.6279 18.5532 18.7568 19.5277 17.5085 20.659L18.8515 22.141ZM21.8376 18.8263C22.4747 17.8494 22.9314 16.9102 23.1671 16.0145L21.2329 15.5055C21.0686 16.1298 20.7253 16.8706 20.1624 17.7337L21.8376 18.8263ZM23.1536 16.0611C23.4171 15.2266 23.56 14.4236 23.56 13.66H21.56C21.56 14.1764 21.4629 14.7734 21.2464 15.4589L23.1536 16.0611ZM23.56 13.66C23.56 11.7218 22.8741 10.1231 21.4244 9.02331L20.2156 10.6167C21.0859 11.2769 21.56 12.2382 21.56 13.66H23.56ZM21.4547 9.04727C20.0837 7.92108 18.1568 7.44 15.84 7.44V9.44C17.9232 9.44 19.3163 9.87891 20.1853 10.5927L21.4547 9.04727ZM15.84 7.44C13.9474 7.44 12.1674 7.80646 10.5116 8.54718L11.3284 10.3728C12.7126 9.75353 14.2126 9.44 15.84 9.44V7.44ZM10.5025 8.55132C8.85179 9.30976 7.46091 10.4877 6.32932 12.0545L7.95068 13.2255C8.89909 11.9123 10.0282 10.9702 11.3375 10.3687L10.5025 8.55132ZM7.68148 11.7993L0.601477 7.23928L-0.481477 8.92071L6.59852 13.4807L7.68148 11.7993ZM0.89205 8.6347C2.38283 6.39852 4.47904 4.61041 7.21719 3.27937L6.34281 1.48063C3.32096 2.94958 0.937166 4.96147 -0.77205 7.5253L0.89205 8.6347ZM7.21719 3.27937C9.93919 1.95617 13.1052 1.28 16.74 1.28V-0.720001C12.8548 -0.720001 9.38081 0.00382233 6.34281 1.48063L7.21719 3.27937ZM16.74 1.28C19.7503 1.28 22.3254 1.78173 24.4909 2.75251L25.3091 0.927487C22.8346 -0.18173 19.9697 -0.720001 16.74 -0.720001V1.28ZM24.5099 2.76075C26.7217 3.69797 28.3816 5.00721 29.5391 6.67106L31.1809 5.52893C29.7784 3.51279 27.7983 1.98203 25.2902 0.919246L24.5099 2.76075ZM29.5475 6.68291C30.73 8.33126 31.34 10.3207 31.34 12.7H33.34C33.34 9.9593 32.63 7.54874 31.1725 5.51709L29.5475 6.68291ZM31.34 12.7C31.34 13.9707 31.172 15.2447 30.8333 16.5241L32.7667 17.0359C33.148 15.5953 33.34 14.1493 33.34 12.7H31.34ZM30.8282 16.5444C30.5457 17.7096 29.9323 18.9955 28.9418 20.4051L30.5782 21.5549C31.6677 20.0045 32.4143 18.4904 32.7719 17.0156L30.8282 16.5444ZM28.9314 20.4201C27.9883 21.816 26.5656 23.419 24.6356 25.2309L26.0044 26.6891C27.9944 24.821 29.5317 23.104 30.5886 21.5399L28.9314 20.4201ZM24.6343 25.2321L11.1943 37.8921L12.5657 39.3479L26.0057 26.6879L24.6343 25.2321ZM12.7652 38.1549L10.9052 34.6149L9.13476 35.5451L10.9948 39.0851L12.7652 38.1549ZM10.02 36.08H33.72V34.08H10.02V36.08ZM32.72 35.08V43H34.72V35.08H32.72ZM33.72 42H1.98V44H33.72V42Z" fill="#50C0FF" mask="url(#path-1-outside-1_148_57)"/>
</svg>
