<svg width="35" height="43" viewBox="0 0 35 43" fill="none" xmlns="http://www.w3.org/2000/svg">
<mask id="path-1-outside-1_148_59" maskUnits="userSpaceOnUse" x="-1" y="-1" width="37" height="45" fill="black">
<rect fill="white" x="-1" y="-1" width="37" height="45"/>
<path d="M16.96 42.72C14.04 42.72 11.14 42.34 8.26 41.58C5.38 40.78 2.94 39.66 0.94 38.22L4.72 30.78C6.32 31.94 8.18 32.86 10.3 33.54C12.42 34.22 14.56 34.56 16.72 34.56C19.16 34.56 21.08 34.08 22.48 33.12C23.88 32.16 24.58 30.84 24.58 29.16C24.58 27.56 23.96 26.3 22.72 25.38C21.48 24.46 19.48 24 16.72 24H12.28V17.58L23.98 4.32L25.06 7.8H3.04V-2.86102e-06H32.44V6.3L20.8 19.56L15.88 16.74H18.7C23.86 16.74 27.76 17.9 30.4 20.22C33.04 22.54 34.36 25.52 34.36 29.16C34.36 31.52 33.74 33.74 32.5 35.82C31.26 37.86 29.36 39.52 26.8 40.8C24.24 42.08 20.96 42.72 16.96 42.72Z"/>
</mask>
<path d="M8.26 41.58L7.99233 42.5436L8.00485 42.5469L8.26 41.58ZM0.94 38.22L0.0484672 37.767L-0.339623 38.5309L0.355695 39.0315L0.94 38.22ZM4.72 30.78L5.30697 29.9704L4.35889 29.283L3.82847 30.327L4.72 30.78ZM10.3 33.54L9.99457 34.4922L10.3 33.54ZM22.48 33.12L23.0455 33.9447L22.48 33.12ZM22.72 25.38L23.3158 24.5769L22.72 25.38ZM12.28 24H11.28V25H12.28V24ZM12.28 17.58L11.5302 16.9184L11.28 17.2019V17.58H12.28ZM23.98 4.32L24.9351 4.0236L24.4076 2.32396L23.2302 3.65838L23.98 4.32ZM25.06 7.8V8.8H26.4174L26.0151 7.5036L25.06 7.8ZM3.04 7.8H2.04V8.8H3.04V7.8ZM3.04 -2.86102e-06V-1H2.04V-2.86102e-06H3.04ZM32.44 -2.86102e-06H33.44V-1H32.44V-2.86102e-06ZM32.44 6.3L33.1915 6.95971L33.44 6.67665V6.3H32.44ZM20.8 19.56L20.3027 20.4276L21.0121 20.8342L21.5515 20.2197L20.8 19.56ZM15.88 16.74V15.74H12.1244L15.3827 17.6076L15.88 16.74ZM30.4 20.22L29.7399 20.9712L30.4 20.22ZM32.5 35.82L33.3546 36.3394L33.3589 36.3321L32.5 35.82ZM26.8 40.8L26.3528 39.9056L26.8 40.8ZM16.96 41.72C14.1278 41.72 11.3136 41.3516 8.51515 40.6131L8.00485 42.5469C10.9664 43.3284 13.9522 43.72 16.96 43.72V41.72ZM8.52764 40.6165C5.73787 39.8415 3.41059 38.7666 1.5243 37.4085L0.355695 39.0315C2.46941 40.5534 5.02213 41.7185 7.99236 42.5435L8.52764 40.6165ZM1.83153 38.673L5.61153 31.233L3.82847 30.327L0.0484672 37.767L1.83153 38.673ZM4.13303 31.5896C5.82883 32.8191 7.78636 33.7839 9.99457 34.4922L10.6054 32.5878C8.57364 31.9361 6.81117 31.0609 5.30697 29.9704L4.13303 31.5896ZM9.99457 34.4922C12.2102 35.2029 14.4532 35.56 16.72 35.56V33.56C14.6668 33.56 12.6298 33.2371 10.6054 32.5878L9.99457 34.4922ZM16.72 35.56C19.2774 35.56 21.4208 35.0588 23.0455 33.9447L21.9145 32.2953C20.7392 33.1012 19.0426 33.56 16.72 33.56V35.56ZM23.0455 33.9447C24.7141 32.8006 25.58 31.1738 25.58 29.16H23.58C23.58 30.5062 23.0459 31.5194 21.9145 32.2953L23.0455 33.9447ZM25.58 29.16C25.58 27.2569 24.8207 25.6934 23.3158 24.5769L22.1242 26.1831C23.0993 26.9066 23.58 27.8631 23.58 29.16H25.58ZM23.3158 24.5769C21.8134 23.4622 19.5457 23 16.72 23V25C19.4143 25 21.1466 25.4578 22.1242 26.1831L23.3158 24.5769ZM16.72 23H12.28V25H16.72V23ZM13.28 24V17.58H11.28V24H13.28ZM13.0298 18.2416L24.7298 4.98162L23.2302 3.65838L11.5302 16.9184L13.0298 18.2416ZM23.0249 4.6164L24.1049 8.0964L26.0151 7.5036L24.9351 4.0236L23.0249 4.6164ZM25.06 6.8H3.04V8.8H25.06V6.8ZM4.04 7.8V-2.86102e-06H2.04V7.8H4.04ZM3.04 0.999996H32.44V-1H3.04V0.999996ZM31.44 -2.86102e-06V6.3H33.44V-2.86102e-06H31.44ZM31.6885 5.64029L20.0485 18.9003L21.5515 20.2197L33.1915 6.95971L31.6885 5.64029ZM21.2973 18.6924L16.3773 15.8724L15.3827 17.6076L20.3027 20.4276L21.2973 18.6924ZM15.88 17.74H18.7V15.74H15.88V17.74ZM18.7 17.74C23.7283 17.74 27.3515 18.8723 29.7399 20.9712L31.0601 19.4688C28.1685 16.9277 23.9917 15.74 18.7 15.74V17.74ZM29.7399 20.9712C32.1552 23.0937 33.36 25.7959 33.36 29.16H35.36C35.36 25.2441 33.9248 21.9863 31.0601 19.4688L29.7399 20.9712ZM33.36 29.16C33.36 31.3348 32.7913 33.3785 31.6411 35.3079L33.3589 36.3321C34.6887 34.1015 35.36 31.7052 35.36 29.16H33.36ZM31.6455 35.3006C30.5212 37.1502 28.7782 38.6929 26.3528 39.9056L27.2472 41.6944C29.9418 40.3471 31.9988 38.5698 33.3545 36.3394L31.6455 35.3006ZM26.3528 39.9056C23.9756 41.0942 20.8628 41.72 16.96 41.72V43.72C21.0572 43.72 24.5044 43.0658 27.2472 41.6944L26.3528 39.9056Z" fill="#F59E0B" mask="url(#path-1-outside-1_148_59)"/>
</svg>
