<svg width="40" height="42" viewBox="0 0 40 42" fill="none" xmlns="http://www.w3.org/2000/svg">
<mask id="path-1-outside-1_148_61" maskUnits="userSpaceOnUse" x="-1" y="-1" width="42" height="44" fill="black">
<rect fill="white" x="-1" y="-1" width="42" height="44"/>
<path d="M0.86 33.18V26.64L20.66 -2.86102e-06H30.86L11.48 26.64L6.74 25.26H39.8V33.18H0.86ZM23.48 42V33.18L23.78 25.26V17.4H32.96V42H23.48Z"/>
</mask>
<path d="M0.86 33.18H-0.14V34.18H0.86V33.18ZM0.86 26.64L0.0574046 26.0435L-0.14 26.3091V26.64H0.86ZM20.66 -2.86102e-06V-1H20.1573L19.8574 -0.596526L20.66 -2.86102e-06ZM30.86 -2.86102e-06L31.6687 0.588278L32.8241 -1H30.86V-2.86102e-06ZM11.48 26.64L11.2005 27.6001L11.8752 27.7966L12.2887 27.2283L11.48 26.64ZM6.74 25.26V24.26L6.46047 26.2201L6.74 25.26ZM39.8 25.26H40.8V24.26H39.8V25.26ZM39.8 33.18V34.18H40.8V33.18H39.8ZM23.48 42H22.48V43H23.48V42ZM23.48 33.18L22.4807 33.1421L22.48 33.1611V33.18H23.48ZM23.78 25.26L24.7793 25.2979L24.78 25.2789V25.26H23.78ZM23.78 17.4V16.4H22.78V17.4H23.78ZM32.96 17.4H33.96V16.4H32.96V17.4ZM32.96 42V43H33.96V42H32.96ZM1.86 33.18V26.64H-0.14V33.18H1.86ZM1.6626 27.2365L21.4626 0.596521L19.8574 -0.596526L0.0574046 26.0435L1.6626 27.2365ZM20.66 0.999996H30.86V-1H20.66V0.999996ZM30.0513 -0.588283L10.6713 26.0517L12.2887 27.2283L31.6687 0.588278L30.0513 -0.588283ZM11.7595 25.6799L7.01953 24.2999L6.46047 26.2201L11.2005 27.6001L11.7595 25.6799ZM6.74 26.26H39.8V24.26H6.74V26.26ZM38.8 25.26V33.18H40.8V25.26H38.8ZM39.8 32.18H0.86V34.18H39.8V32.18ZM24.48 42V33.18H22.48V42H24.48ZM24.4793 33.2178L24.7793 25.2979L22.7807 25.2221L22.4807 33.1421L24.4793 33.2178ZM24.78 25.26V17.4H22.78V25.26H24.78ZM23.78 18.4H32.96V16.4H23.78V18.4ZM31.96 17.4V42H33.96V17.4H31.96ZM32.96 41H23.48V43H32.96V41Z" fill="#FD0050" mask="url(#path-1-outside-1_148_61)"/>
</svg>
